<svg version="1.1" id="Layer_1" xmlns="http://www.w3.org/2000/svg" xmlns:xlink="http://www.w3.org/1999/xlink" x="0px" y="0px"
	 width="100%" viewBox="0 0 1024 1024" enable-background="new 0 0 1024 1024" xml:space="preserve">
<path fill="#000000" opacity="1.000000" stroke="none" 
	d="
M443.285828,508.294250 
	C435.156555,519.255676 427.842957,530.328613 420.047699,542.911804 
	C427.967468,541.191589 434.549347,539.940979 441.038879,538.320618 
	C465.917236,532.109192 490.791473,525.896729 515.383911,518.573486 
	C520.159729,517.151367 523.972290,514.612793 528.114380,512.318359 
	C533.893860,509.116943 535.510315,509.698242 538.588928,515.653564 
	C541.137390,520.583191 547.669922,523.344971 554.008972,522.484314 
	C577.134277,519.344543 597.552856,509.633270 617.081299,497.350922 
	C629.075256,489.807343 638.138306,479.786652 645.989014,468.184418 
	C653.643738,456.871704 662.147278,446.141418 671.910583,436.506653 
	C673.439819,434.997528 675.156982,433.637512 676.942444,432.440063 
	C678.991577,431.065704 681.289673,430.448151 683.378479,432.360687 
	C685.514221,434.316223 684.850159,436.721771 683.734680,438.807648 
	C680.331848,445.171021 675.567627,450.565735 670.859741,455.953491 
	C665.164124,462.471588 659.442200,468.990875 653.359314,475.141357 
	C640.636536,488.005432 632.579712,504.021515 623.299927,519.180786 
	C616.000427,531.105042 609.437073,543.482056 602.629883,555.704285 
	C600.682190,559.201538 599.180969,562.928955 598.404175,566.883484 
	C597.206543,572.979736 598.857971,574.721436 604.887939,573.445740 
	C612.829712,571.765381 619.814575,567.795898 626.696167,563.716187 
	C644.055603,553.424805 660.004700,541.003906 677.045959,530.228699 
	C681.972229,527.113831 686.925049,524.040833 691.882751,520.976135 
	C692.872375,520.364380 693.903870,519.496033 694.976624,519.396240 
	C701.452026,518.793274 705.396912,515.151062 708.406006,509.609314 
	C709.841492,506.965698 713.044128,506.925476 715.488708,508.653503 
	C718.137207,510.525726 717.304871,512.956909 715.730347,515.229858 
	C712.559082,519.807983 708.548279,523.921814 707.381592,529.579834 
	C709.325317,531.437256 711.076477,530.248230 712.736633,529.802307 
	C719.994934,527.852478 726.913635,524.983032 733.797974,521.997986 
	C737.516724,520.385559 740.823547,517.420410 745.473877,518.551208 
	C747.009949,518.924744 748.051086,517.206848 749.091614,516.171692 
	C751.247375,514.027039 753.663757,512.318298 756.479919,511.151398 
	C761.669983,509.000916 763.341370,509.696838 765.394714,514.944458 
	C766.506042,517.784607 774.258484,523.035645 777.400818,522.813416 
	C789.192749,521.979309 800.982361,521.087463 812.624084,518.882446 
	C814.398132,518.546448 816.131897,517.775513 818.015442,518.467346 
	C819.551025,519.031311 820.699341,519.945923 820.799927,521.628296 
	C820.891357,523.157959 819.846741,524.025757 818.515015,524.562439 
	C814.773926,526.070068 810.828613,526.666992 806.869873,527.258484 
	C796.156982,528.859314 785.375671,529.712463 774.566101,530.190918 
	C772.214661,530.294983 771.054932,531.520996 769.873413,533.280640 
	C765.755493,539.414062 760.019653,543.170227 752.647827,544.054565 
	C743.499939,545.152039 738.599365,540.123840 739.813904,531.096619 
	C739.965515,529.969299 740.259094,528.861084 740.660828,526.890930 
	C736.212585,528.796692 732.315796,530.419983 728.457581,532.130493 
	C723.258789,534.435303 717.862610,536.118469 712.316772,537.314331 
	C701.116272,539.729431 698.343628,537.432495 698.745361,525.726440 
	C692.781555,528.352051 687.645935,531.969604 682.402283,535.413635 
	C664.166504,547.390808 646.840698,560.758057 627.803589,571.501038 
	C620.150513,575.819763 612.556824,580.480042 603.490173,581.490356 
	C592.084473,582.761414 587.139709,577.387085 589.517944,566.197571 
	C592.488892,552.219055 600.404175,540.522766 607.157471,528.311646 
	C611.023804,521.320618 615.330017,514.573364 619.391968,507.689087 
	C619.855347,506.903809 620.685364,506.083221 619.829773,504.695587 
	C613.125000,508.251190 606.475647,511.934875 599.688843,515.345154 
	C583.303223,523.578613 566.064819,528.949402 547.679016,530.168030 
	C545.393555,530.319458 544.085693,531.298645 542.915649,533.140015 
	C540.365540,537.153442 537.032471,540.444641 532.545837,542.209656 
	C526.941345,544.414490 521.107239,545.588318 515.886475,541.549011 
	C510.846588,537.649719 512.681335,532.293457 514.028442,526.529846 
	C507.618683,528.291260 501.622528,529.905823 495.645233,531.587463 
	C470.802246,538.576904 445.679108,544.453064 420.607819,550.538208 
	C412.665527,552.465881 411.011108,555.834717 413.728058,563.391174 
	C417.174286,572.975830 416.830017,582.695129 414.197235,592.392029 
	C413.541229,594.808044 412.315704,597.027100 410.696075,598.972107 
	C407.346741,602.994202 402.961670,604.245483 398.104523,602.826355 
	C393.185120,601.388977 391.819336,597.221191 391.711243,592.601196 
	C391.454193,581.612610 396.134979,571.883423 399.708649,561.877991 
	C400.291656,560.245667 402.145203,558.813660 400.710022,556.861145 
	C399.139771,554.724731 396.898682,555.259338 394.749817,555.640442 
	C390.007782,556.481506 385.282349,557.828552 380.421234,556.883667 
	C377.616821,556.338562 374.545166,555.532837 374.567383,551.861755 
	C374.587128,548.600586 377.281067,547.517395 379.929321,546.789185 
	C385.332520,545.303467 390.737457,545.386536 396.237030,546.551392 
	C405.166962,548.442688 408.481445,546.286987 411.629272,539.698120 
	C414.533508,533.619080 418.441986,528.019775 422.339966,521.485291 
	C412.444794,526.999512 403.478668,532.396606 393.513123,535.729004 
	C391.463898,536.414246 389.387329,537.063721 387.277191,537.512756 
	C377.081635,539.681946 373.549255,536.440735 374.889771,525.693604 
	C372.297302,525.958130 370.210938,527.218140 368.042053,528.210815 
	C354.407623,534.451355 340.686127,540.445679 326.015289,543.933838 
	C321.105743,545.101196 316.161652,545.555725 311.140961,545.327637 
	C302.946625,544.955566 298.980774,540.466736 299.867920,532.289673 
	C300.503296,526.433350 302.746613,521.033386 305.804504,514.685913 
	C299.795044,519.673096 294.695526,523.982117 289.510803,528.185974 
	C284.421600,532.312378 278.874176,535.726624 272.452148,537.279053 
	C264.011353,539.319458 261.250153,536.881592 261.998474,528.076538 
	C252.653366,531.912598 243.585358,536.064331 233.647629,537.760559 
	C228.670456,538.609985 224.734344,537.878906 222.006577,532.956543 
	C216.706467,535.366272 211.780823,538.519165 205.979401,539.624512 
	C203.097275,540.173645 200.523376,540.018494 198.678040,537.771851 
	C196.608856,535.252747 197.221527,532.256714 198.822586,529.816528 
	C204.684433,520.882568 212.798599,515.177612 223.551926,513.805237 
	C227.276001,513.329895 230.769943,515.116089 234.074966,516.409424 
	C237.027222,517.564636 236.258316,520.465759 234.698105,522.788513 
	C233.162796,525.074341 231.066360,527.081848 230.833359,530.171997 
	C234.015091,531.283020 236.688019,530.032776 239.273804,529.128235 
	C246.818893,526.488892 254.116104,523.171387 261.563782,520.322449 
	C269.025757,517.468018 276.184387,514.372070 282.957031,510.080048 
	C287.387512,507.272430 292.650238,506.444702 297.799805,508.736816 
	C300.385406,509.887695 301.462006,507.935699 302.817963,506.620667 
	C314.928314,494.875275 325.690125,482.012665 335.521515,468.283508 
	C343.658905,456.920044 351.931335,445.589478 362.197632,435.947937 
	C364.021240,434.235199 365.866547,432.550751 368.274414,431.646698 
	C370.128052,430.950745 371.893372,430.927155 373.401123,432.356720 
	C374.972443,433.846619 374.810028,435.721344 374.046570,437.459229 
	C372.015961,442.081635 368.855713,445.982208 365.713318,449.867188 
	C357.637665,459.851257 348.631348,469.001343 340.009552,478.497620 
	C327.452454,492.328308 318.419281,508.424377 310.680359,525.291321 
	C309.649170,527.538757 309.106628,530.034180 308.528442,532.460144 
	C307.693237,535.964783 309.021057,537.858948 312.802002,537.967712 
	C318.359406,538.127502 323.745239,537.263367 329.058502,535.713867 
	C343.983459,531.361328 358.094025,524.966858 372.184021,518.525940 
	C374.318817,517.550110 376.380341,516.620972 378.636017,517.956116 
	C380.442932,515.108643 381.895569,512.473572 383.684418,510.091003 
	C385.768829,507.314697 388.639038,506.494110 391.524414,508.701782 
	C394.368530,510.877869 393.053864,513.352478 391.367157,515.689880 
	C388.116394,520.194763 384.271301,524.379700 382.782562,529.977173 
	C385.529938,531.341187 387.541351,530.172180 389.510803,529.491089 
	C405.593536,523.928955 419.646851,514.660156 433.531464,505.123047 
	C434.987122,504.123169 436.031250,502.478333 437.151459,501.043091 
	C447.801544,487.398071 457.835083,473.217468 471.329468,462.062653 
	C473.535248,460.239319 475.948914,458.795197 478.549286,457.639709 
	C480.655151,456.704010 482.827209,456.402435 484.638458,458.081757 
	C486.606262,459.906281 486.531921,462.278229 485.551086,464.562805 
	C483.015381,470.468842 478.900757,475.284546 474.680756,480.022369 
	C465.331848,490.518433 454.577789,499.445251 443.285828,508.294250 
M408.415985,581.030334 
	C408.867096,576.985840 408.690063,573.034119 406.737030,568.343506 
	C403.533905,576.104248 400.455933,582.894470 400.236511,590.526733 
	C400.182037,592.420715 399.670197,595.021545 402.345245,595.417664 
	C404.706879,595.767456 405.616516,593.430542 406.386353,591.630493 
	C407.706879,588.542847 407.877258,585.186768 408.415985,581.030334 
M533.660522,530.325867 
	C530.649902,529.994995 528.249878,528.136475 525.394897,526.662048 
	C523.521973,529.605225 520.344177,531.971069 521.849915,535.580627 
	C522.798645,537.855042 525.887390,537.273254 527.703369,536.490051 
	C530.450684,535.305115 534.723877,535.297058 533.660522,530.325867 
M752.743164,526.945862 
	C750.145081,529.313538 747.286743,531.809753 748.985779,535.722900 
	C749.943604,537.928772 755.967773,536.785095 759.380371,533.951355 
	C760.241089,533.236633 761.301208,532.568726 761.080139,530.749084 
	C758.542542,529.754700 755.627319,528.981384 752.743164,526.945862 
M277.860779,527.392822 
	C282.581543,524.373718 287.377197,521.441772 290.585175,516.614441 
	C281.790039,517.657837 276.269775,523.370728 271.405396,530.186157 
	C273.346619,529.370544 275.287811,528.554932 277.860779,527.392822 
M210.018204,530.943054 
	C214.713898,529.043152 219.208786,526.848694 223.166229,522.017151 
	C215.799835,523.215942 210.998322,526.667114 205.881027,532.318359 
	C207.951080,531.678223 208.703003,531.445740 210.018204,530.943054 
z"/>
<path fill="#000000" opacity="1.000000" stroke="none" 
	d="
M721.931946,503.795807 
	C719.759766,505.759979 717.966187,508.722534 715.058228,506.032837 
	C712.486023,503.653717 714.064880,500.981140 715.829224,498.951263 
	C717.546326,496.975769 719.275513,493.396912 722.561646,495.620880 
	C725.959534,497.920532 723.729675,500.912872 721.931946,503.795807 
z"/>
<path fill="#000000" opacity="1.000000" stroke="none" 
	d="
M391.486023,506.219360 
	C389.453491,502.295410 391.786652,496.308868 395.451965,495.041779 
	C398.256317,494.072388 400.501434,495.876404 400.173248,498.835388 
	C399.755157,502.604370 395.913300,506.079987 391.486023,506.219360 
z"/>
</svg>